<?xml version="1.0" encoding="utf-8"?>
<!-- Generator: Adobe Illustrator 16.0.0, SVG Export Plug-In . SVG Version: 6.00 Build 0)  -->
<!DOCTYPE svg PUBLIC "-//W3C//DTD SVG 1.1//EN" "http://www.w3.org/Graphics/SVG/1.1/DTD/svg11.dtd">
<svg version="1.1" id="Layer_1" xmlns="http://www.w3.org/2000/svg" xmlns:xlink="http://www.w3.org/1999/xlink" x="0px" y="0px"
	 width="120px" height="100.341px" viewBox="0 0 120 100.341" enable-background="new 0 0 120 100.341" xml:space="preserve">
<g>
	<path fill="#103E2E" d="M105.525,36.891c-0.634-0.411-1.296-0.78-1.971-1.128v3.013v33.795c0,1.433-0.131,2.797-0.38,4.096
		c7.588-3.729,12.811-11.532,12.811-20.557C115.985,48.053,111.817,40.971,105.525,36.891z"/>
	<path fill="#103E2E" d="M98.264,27.388c1.627,0,3.019-0.574,4.18-1.722c1.16-1.147,1.739-2.523,1.739-4.125
		c0-1.626-0.579-3.007-1.739-4.143c-1.161-1.136-2.553-1.704-4.18-1.704c-1.649,0-3.054,0.568-4.213,1.704
		c-1.161,1.136-1.739,2.517-1.739,4.143c0,1.602,0.578,2.978,1.739,4.125C95.21,26.813,96.614,27.388,98.264,27.388z"/>
	<path fill="#103E2E" d="M103.555,35.763v-5.535H92.938v2.991c0.051,0,0.099-0.004,0.148-0.004
		C96.862,33.214,100.416,34.143,103.555,35.763z"/>
	<path fill="#103E2E" d="M94.099,79.011h-3.291c-1.618,2.112-3.752,3.172-6.406,3.172h-0.717l0.179,9.074
		c4.903,0,9.003-1.172,12.303-3.515c3.819-2.893,6.152-6.587,7.009-11.076c-2.14,1.052-4.467,1.782-6.918,2.121
		C95.56,78.93,94.839,79.011,94.099,79.011z"/>
	<circle fill="none" cx="26.915" cy="56.113" r="13.66"/>
	<path fill="#103E2E" d="M82.895,35.605c-0.038-8.632-3.601-16.292-9.098-21.133c-3.837-3.38-8.615-5.389-13.8-5.389
		c-4.884,0-9.408,1.784-13.124,4.818v26.023h-1.489h-0.619v-3.242V15.846v-1.638c0-2.831-2.715-5.125-6.063-5.125
		c-3.349,0-6.064,2.294-6.064,5.125v19.738c-1.83-0.473-3.745-0.732-5.723-0.732c-12.649,0-22.9,10.251-22.9,22.896
		c0,12.059,9.319,21.933,21.149,22.827c0.18,0.02,0.362,0.032,0.544,0.041c0.02,0.001,0.04,0.003,0.061,0.003
		c0.198,0.012,0.394,0.03,0.595,0.03h28.948V62.926H44.765L60,41.636l15.235,21.29H64.688v16.085h26.12
		c0.525-0.686,0.998-1.479,1.413-2.387c0.478-1.506,0.717-2.917,0.717-4.232V36.231v-3.013
		C89.33,33.241,85.924,34.098,82.895,35.605z M26.959,69.773c-7.545,0.024-13.681-6.072-13.706-13.617
		c-0.024-7.544,6.07-13.679,13.617-13.704c7.543-0.025,13.681,6.071,13.705,13.614C40.6,63.611,34.504,69.75,26.959,69.773z"/>
</g>
</svg>
